<svg width="512" height="512" viewBox="0 0 512 512" fill="none" xmlns="http://www.w3.org/2000/svg">
  <!-- Diagonal lines - top left -->
  <line x1="41" y1="102" x2="148" y2="209" stroke="black" stroke-width="14" stroke-linecap="round"/>
  <line x1="56" y1="77" x2="163" y2="184" stroke="black" stroke-width="14" stroke-linecap="round"/>
  <line x1="77" y1="56" x2="184" y2="163" stroke="black" stroke-width="14" stroke-linecap="round"/>
  <line x1="102" y1="41" x2="209" y2="148" stroke="black" stroke-width="14" stroke-linecap="round"/>

  <!-- Diagonal lines - top right -->
  <line x1="471" y1="102" x2="364" y2="209" stroke="black" stroke-width="14" stroke-linecap="round"/>
  <line x1="456" y1="77" x2="349" y2="184" stroke="black" stroke-width="14" stroke-linecap="round"/>
  <line x1="435" y1="56" x2="328" y2="163" stroke="black" stroke-width="14" stroke-linecap="round"/>
  <line x1="410" y1="41" x2="303" y2="148" stroke="black" stroke-width="14" stroke-linecap="round"/>

  <!-- Diagonal lines - bottom left -->
  <line x1="41" y1="410" x2="148" y2="303" stroke="black" stroke-width="14" stroke-linecap="round"/>
  <line x1="56" y1="435" x2="163" y2="328" stroke="black" stroke-width="14" stroke-linecap="round"/>
  <line x1="77" y1="456" x2="184" y2="349" stroke="black" stroke-width="14" stroke-linecap="round"/>
  <line x1="102" y1="471" x2="209" y2="364" stroke="black" stroke-width="14" stroke-linecap="round"/>

  <!-- Diagonal lines - bottom right -->
  <line x1="471" y1="410" x2="364" y2="303" stroke="black" stroke-width="14" stroke-linecap="round"/>
  <line x1="456" y1="435" x2="349" y2="328" stroke="black" stroke-width="14" stroke-linecap="round"/>
  <line x1="435" y1="456" x2="328" y2="349" stroke="black" stroke-width="14" stroke-linecap="round"/>
  <line x1="410" y1="471" x2="303" y2="364" stroke="black" stroke-width="14" stroke-linecap="round"/>

  <!-- Main circle -->
  <circle cx="256" cy="256" r="143" fill="white" stroke="black" stroke-width="18"/>

  <!-- Four colored dots -->
  <circle cx="210" cy="210" r="38" fill="#808080"/>
  <circle cx="302" cy="210" r="38" fill="#FF0000"/>
  <circle cx="210" cy="302" r="38" fill="#FFFF00"/>
  <circle cx="302" cy="302" r="38" fill="#0000FF"/>
</svg>
