<svg width="500" height="500" viewBox="0 0 500 500" fill="none" xmlns="http://www.w3.org/2000/svg">
  <!-- Background -->
  <rect width="500" height="500" fill="white"/>

  <!-- Diagonal lines - top left -->
  <line x1="40" y1="100" x2="145" y2="205" stroke="black" stroke-width="12" stroke-linecap="round"/>
  <line x1="55" y1="75" x2="160" y2="180" stroke="black" stroke-width="12" stroke-linecap="round"/>
  <line x1="75" y1="55" x2="180" y2="160" stroke="black" stroke-width="12" stroke-linecap="round"/>
  <line x1="100" y1="40" x2="205" y2="145" stroke="black" stroke-width="12" stroke-linecap="round"/>

  <!-- Diagonal lines - top right -->
  <line x1="460" y1="100" x2="355" y2="205" stroke="black" stroke-width="12" stroke-linecap="round"/>
  <line x1="445" y1="75" x2="340" y2="180" stroke="black" stroke-width="12" stroke-linecap="round"/>
  <line x1="425" y1="55" x2="320" y2="160" stroke="black" stroke-width="12" stroke-linecap="round"/>
  <line x1="400" y1="40" x2="295" y2="145" stroke="black" stroke-width="12" stroke-linecap="round"/>

  <!-- Diagonal lines - bottom left -->
  <line x1="40" y1="400" x2="145" y2="295" stroke="black" stroke-width="12" stroke-linecap="round"/>
  <line x1="55" y1="425" x2="160" y2="320" stroke="black" stroke-width="12" stroke-linecap="round"/>
  <line x1="75" y1="445" x2="180" y2="340" stroke="black" stroke-width="12" stroke-linecap="round"/>
  <line x1="100" y1="460" x2="205" y2="355" stroke="black" stroke-width="12" stroke-linecap="round"/>

  <!-- Diagonal lines - bottom right -->
  <line x1="460" y1="400" x2="355" y2="295" stroke="black" stroke-width="12" stroke-linecap="round"/>
  <line x1="445" y1="425" x2="340" y2="320" stroke="black" stroke-width="12" stroke-linecap="round"/>
  <line x1="425" y1="445" x2="320" y2="340" stroke="black" stroke-width="12" stroke-linecap="round"/>
  <line x1="400" y1="460" x2="295" y2="355" stroke="black" stroke-width="12" stroke-linecap="round"/>

  <!-- Main circle - white fill with black stroke -->
  <circle cx="250" cy="250" r="140" fill="white" stroke="black" stroke-width="16"/>

  <!-- Four colored dots -->
  <!-- Gray (top-left) -->
  <circle cx="205" cy="205" r="35" fill="#808080"/>
  <!-- Red (top-right) -->
  <circle cx="295" cy="205" r="35" fill="#FF0000"/>
  <!-- Yellow (bottom-left) -->
  <circle cx="205" cy="295" r="35" fill="#FFFF00"/>
  <!-- Blue (bottom-right) -->
  <circle cx="295" cy="295" r="35" fill="#0000FF"/>
</svg>
